<svg width="24" height="25" viewBox="0 0 24 25" fill="none" xmlns="http://www.w3.org/2000/svg">
<g clip-path="url(#clip0_772_1806)">
<path d="M12 24.7546C18.6274 24.7546 24 19.382 24 12.7546C24 6.12722 18.6274 0.754639 12 0.754639C5.37258 0.754639 0 6.12722 0 12.7546C0 19.382 5.37258 24.7546 12 24.7546Z" fill="#003764"/>
<path d="M13 19.7546C13 20.3069 12.5523 20.7546 12 20.7546C11.4477 20.7546 11 20.3069 11 19.7546C11 19.2024 11.4477 18.7546 12 18.7546C12.5523 18.7546 13 19.2024 13 19.7546Z" fill="#DB6A4B"/>
<path fill-rule="evenodd" clip-rule="evenodd" d="M12 20.7546C12.5523 20.7546 13 20.3069 13 19.7546C13 19.2024 12.5523 18.7546 12 18.7546C11.4477 18.7546 11 19.2024 11 19.7546C11 20.3069 11.4477 20.7546 12 20.7546Z" fill="#65B2E8"/>
<path fill-rule="evenodd" clip-rule="evenodd" d="M12 6.75464C10.3431 6.75464 9 8.09778 9 9.75464C9 10.3069 8.55228 10.7546 8 10.7546C7.44772 10.7546 7 10.3069 7 9.75464C7 6.99321 9.23858 4.75464 12 4.75464C14.7614 4.75464 17 6.99321 17 9.75464C17 12.1736 15.2822 14.1913 13 14.6546V16.2546C13 16.8069 12.5523 17.2546 12 17.2546C11.4477 17.2546 11 16.8069 11 16.2546V13.7546C11 13.2024 11.4477 12.7546 12 12.7546C13.6569 12.7546 15 11.4115 15 9.75464C15 8.09778 13.6569 6.75464 12 6.75464Z" fill="#65B2E8"/>
</g>
<defs>
<clipPath id="clip0_772_1806">
<rect width="24" height="24" fill="white" transform="translate(0 0.754639)"/>
</clipPath>
</defs>
</svg>
